<!--?xml version="1.0" standalone="no"?--><svg version="1.0" xmlns="http://www.w3.org/2000/svg" width="300.000000pt" height="225.000000pt" viewBox="0 0 300.000000 225.000000" preserveAspectRatio="xMidYMid meet">
<metadata>
  <rdf:rdf xmlns:rdf="http://www.w3.org/1999/02/22-rdf-syntax-ns#" xmlns:rdfs="http://www.w3.org/2000/01/rdf-schema#" xmlns:dc="http://purl.org/dc/elements/1.1/">
    <rdf:description dc:title="wave" dc:publisher="Hiox" dc:date="2015-04-20" dc:format="image/svg+xml" dc:language="en">
      <dc:creator>
        <rdf:bag>
          <rdf:li>svgimages.com</rdf:li>
        </rdf:bag>
      </dc:creator>
    </rdf:description>
  </rdf:rdf>
</metadata>
<g transform="translate(0.000000,225.000000) scale(0.100000,-0.100000)" fill="#2D4BCC" stroke="none">
<path d="M765 1218 c-61 -57 -155 -63 -221 -13 l-37 28 7 -79 c8 -91 21 -109
91 -119 64 -10 122 3 158 35 l31 28 36 -29 c66 -53 172 -49 240 8 17 14 30 20
30 14 0 -6 17 -22 37 -36 62 -42 177 -33 231 17 l22 21 23 -21 c31 -29 70 -42
128 -42 55 0 106 18 128 44 13 15 17 14 50 -11 33 -25 44 -28 118 -28 79 0 83
1 116 33 33 32 34 32 51 13 52 -57 176 -65 240 -16 l35 26 41 -27 c67 -45 181
-43 223 4 8 10 18 49 22 92 l7 74 -38 -29 c-34 -26 -48 -30 -101 -30 -53 0
-67 4 -108 33 l-46 32 -39 -31 c-68 -55 -161 -50 -228 10 -30 28 -32 29 -45
11 -48 -69 -165 -79 -237 -21 l-40 32 -39 -32 c-73 -58 -167 -56 -229 4 -35
34 -38 35 -49 18 -17 -28 -94 -61 -140 -61 -30 0 -55 9 -93 35 -53 35 -53 36
-74 17 -35 -33 -83 -52 -126 -52 -47 0 -72 11 -115 49 l-30 27 -30 -28z" id="node1" class="node"></path>
</g>
<g transform="translate(0.000000,225.000000) scale(0.100000,-0.100000)" fill="#FFFFFF" stroke="none">

</g>
</svg>